<?xml version="1.0" encoding="UTF-8"?>
<svg version="1.1" xmlns="http://www.w3.org/2000/svg" width="206" height="206">
<path d="M0 0 C3.34117157 1.3746635 4.68138475 2.60491196 6.33984375 5.796875 C6.75613037 6.57925537 7.17241699 7.36163574 7.60131836 8.16772461 C8.0422583 9.01987549 8.48319824 9.87202637 8.9375 10.75 C9.91354233 12.5810959 10.89283008 14.41046478 11.875 16.23828125 C12.38546875 17.18912598 12.8959375 18.1399707 13.421875 19.11962891 C15.98192362 23.79219289 18.70597698 28.36372055 21.4375 32.9375 C27.20922123 42.63313975 32.84703517 52.3970993 38.41162109 62.21289062 C40.15345607 65.26926753 41.9139797 68.31446739 43.67578125 71.359375 C44.88817426 73.46866182 46.10041714 75.57803494 47.3125 77.6875 C47.89451172 78.68644287 48.47652344 79.68538574 49.07617188 80.71459961 C49.60404297 81.63764893 50.13191406 82.56069824 50.67578125 83.51171875 C51.14927002 84.33115967 51.62275879 85.15060059 52.1105957 85.99487305 C52.40409912 86.65656494 52.69760254 87.31825684 53 88 C52.67 88.66 52.34 89.32 52 90 C23.96323818 90.50516688 0.51715937 80.76636177 -20 62 C-20.84304687 61.23945313 -21.68609375 60.47890625 -22.5546875 59.6953125 C-28.5234697 54.06638979 -28.5234697 54.06638979 -29 49 C-28.01538086 46.47973633 -28.01538086 46.47973633 -26.46484375 43.83203125 C-25.90216797 42.85556641 -25.33949219 41.87910156 -24.75976562 40.87304688 C-24.15841797 39.86306641 -23.55707031 38.85308594 -22.9375 37.8125 C-22.36322266 36.82185547 -21.78894531 35.83121094 -21.19726562 34.81054688 C-19.48269935 31.86273001 -17.74635143 28.92908275 -16 26 C-15.4642334 25.10128174 -14.9284668 24.20256348 -14.37646484 23.27661133 C-11.53059148 18.52014292 -8.65624973 13.78229534 -5.75 9.0625 C-5.08484375 7.98097656 -4.4196875 6.89945312 -3.734375 5.78515625 C-2.52108928 3.83679428 -1.27317611 1.90976417 0 0 Z " fill="#63D39F" transform="translate(55,110)"/>
<path d="M0 0 C0.84416473 -0.00137466 1.68832947 -0.00274933 2.55807495 -0.00416565 C3.48595825 -0.00057037 4.41384155 0.0030249 5.36984253 0.00672913 C6.83331619 0.00651009 6.83331619 0.00651009 8.32635498 0.00628662 C11.56206459 0.00698516 14.79771715 0.01477485 18.03341675 0.02259827 C20.27258269 0.02446265 22.51174903 0.02588646 24.75091553 0.02688599 C30.65283326 0.03070953 36.55472649 0.04053845 42.45663452 0.05158997 C48.47571481 0.06180757 54.49479904 0.06638436 60.5138855 0.07142639 C72.33030253 0.08216084 84.14670135 0.09923533 95.96310425 0.12025452 C96.96310425 3.12025452 96.96310425 3.12025452 95.84591675 5.46791077 C91.43225267 12.28456973 86.58345816 18.2657192 80.96310425 24.12025452 C80.30310425 24.83181702 79.64310425 25.54337952 78.96310425 26.27650452 C65.19838223 40.70726147 43.05752579 52.06265338 22.96310425 53.12025452 C19.81864127 48.60427046 16.86176914 44.05706074 14.271698 39.19837952 C11.88513966 34.77983085 9.42610683 30.40877969 6.912323 26.06166077 C6.56457825 25.45887802 6.2168335 24.85609528 5.85855103 24.23504639 C4.42364563 21.74850822 2.98768911 19.26262383 1.54489136 16.78065491 C0.47544292 14.93934162 -0.58783738 13.09458214 -1.650177 11.24916077 C-2.27706421 10.16707336 -2.90395142 9.08498596 -3.54983521 7.97010803 C-4.7830885 5.60665938 -5.57312107 3.7210841 -6.03689575 1.12025452 C-3.76112107 -0.01763282 -2.52656151 -0.00316612 0 0 Z " fill="#5ED49E" transform="translate(94.03689575195313,145.87974548339844)"/>
<path d="M0 0 C7.8855211 0.06404484 15.21264926 1.35897113 22.875 3.25 C24.53015625 3.65025391 24.53015625 3.65025391 26.21875 4.05859375 C44.66674338 9.09597058 61.00801836 21.70334423 73.94140625 35.4765625 C75.29192154 38.04197649 74.61668012 39.48692727 73.875 42.25 C72.72680664 44.56738281 72.72680664 44.56738281 71.28515625 46.953125 C70.75269287 47.84314209 70.22022949 48.73315918 69.67163086 49.65014648 C69.09936768 50.59059814 68.52710449 51.5310498 67.9375 52.5 C66.75241268 54.47514554 65.56751904 56.45040729 64.3828125 58.42578125 C63.49577637 59.896521 63.49577637 59.896521 62.59082031 61.39697266 C60.13678048 65.47749479 57.72231386 69.58075817 55.3125 73.6875 C54.92006104 74.35362305 54.52762207 75.01974609 54.12329102 75.70605469 C51.673289 79.86845795 49.2637275 84.05212288 46.875 88.25 C44.640625 88.1953125 44.640625 88.1953125 41.875 87.25 C40.21478461 84.86874216 38.92410494 82.69233536 37.625 80.125 C36.84064571 78.65252313 36.05413487 77.18119325 35.265625 75.7109375 C34.86923828 74.96295898 34.47285156 74.21498047 34.06445312 73.44433594 C32.27644813 70.145775 30.33258021 66.94984957 28.375 63.75 C25.28473866 58.6620887 22.32396583 53.51852648 19.4375 48.3125 C16.34758968 42.74604251 13.0933788 37.31624575 9.6875 31.9375 C3.41998544 22.02793857 -1.9482735 11.76866768 -7.125 1.25 C-5.28791637 -0.58708363 -2.46883319 0.0331387 0 0 Z " fill="#64D4A0" transform="translate(107.125,1.75)"/>
<path d="M0 0 C3.4410433 1.02155973 4.13492088 2.22846953 6 5.38671875 C6.68345386 6.81238572 7.34920823 8.24663028 8 9.6875 C8.34812744 10.44192383 8.69625488 11.19634766 9.05493164 11.97363281 C12.25168012 19.13207403 14.33174121 26.34674498 16 34 C16.17362061 34.78205811 16.34724121 35.56411621 16.52612305 36.36987305 C19.44203293 52.5538489 17.7057873 71.58369477 10.80981445 86.58995056 C9 89 9 89 6.39936829 89.60127258 C5.35790146 89.59016953 4.31643463 89.57906647 3.2434082 89.56762695 C2.06241043 89.5672493 0.88141266 89.56687164 -0.33537292 89.56648254 C-1.61044205 89.54067612 -2.88551117 89.51486969 -4.19921875 89.48828125 C-5.50454056 89.48120651 -6.80986237 89.47413177 -8.15473938 89.46684265 C-11.62236515 89.44776643 -15.08894098 89.39866332 -18.55615234 89.34332275 C-22.09523311 89.29214189 -25.63448383 89.26933129 -29.17382812 89.24414062 C-36.11631629 89.19054295 -43.05810772 89.10522429 -50 89 C-49.34417834 85.42859939 -48.58334301 82.94269339 -46.625 79.875 C-43.55353269 74.92529728 -40.60174269 69.91824352 -37.6875 64.875 C-37.21078857 64.05128906 -36.73407715 63.22757813 -36.24291992 62.37890625 C-33.27024052 57.2315485 -30.33827167 52.06315573 -27.4375 46.875 C-20.87233761 35.14217349 -13.99420259 23.59123181 -7.04296875 12.08374023 C-4.63386334 8.08882982 -2.30210159 4.05706694 0 0 Z " fill="#61D49D" transform="translate(186,49)"/>
<path d="M0 0 C4.80029538 5.20595414 7.95632625 12.37433415 11.39013672 18.55078125 C14.6834994 24.47415484 18.09712294 30.32066345 21.54980469 36.15234375 C22.3273189 37.46587639 23.10201383 38.78108296 23.87353516 40.09814453 C24.63862752 41.38988045 25.42023961 42.67194474 26.21630859 43.94482422 C27.21951579 45.58616236 28.11885296 47.29003057 29 49 C28.67 49.99 28.34 50.98 28 52 C7.95362526 52.1043931 -12.08801242 51.80406324 -32.13201904 51.53643799 C-36.75206154 51.47506496 -41.37212541 51.41534498 -45.9921875 51.35546875 C-54.99481281 51.23855923 -63.9974137 51.11987388 -73 51 C-73 41.32983946 -61.50874373 31.56866843 -55 25 C-54.195625 24.18273437 -53.39125 23.36546875 -52.5625 22.5234375 C-43.12712925 13.491553 -13.80925157 -6.57731847 0 0 Z " fill="#5ED19B" transform="translate(91,4)"/>
<path d="M0 0 C19.8 0 39.6 0 60 0 C59.07923076 3.68307696 58.10109033 5.79671498 56.1875 9 C55.55714844 10.06089844 54.92679688 11.12179688 54.27734375 12.21484375 C53.51895863 13.4770011 52.75978105 14.73868247 52 16 C50.0830795 19.1873474 48.16648583 22.37489123 46.25 25.5625 C45.73107178 26.42480225 45.21214355 27.28710449 44.67749023 28.17553711 C41.31478685 33.77451341 38.00846967 39.40231081 34.75 45.0625 C30.42692564 52.56755722 26.04863393 60.03919646 21.6385498 67.49337769 C20.92856382 68.69364866 20.21915987 69.89426414 19.51037598 71.09524536 C18.50998103 72.78979856 17.50698144 74.48281323 16.50390625 76.17578125 C15.92455322 77.15458252 15.3452002 78.13338379 14.74829102 79.1418457 C12.90284245 82.15883584 11.07298497 85.1330833 9 88 C8.34 88 7.68 88 7 88 C-4.6441952 65.9196529 -9.70304661 44.43974512 -5.75 19.625 C-5.64083252 18.9247168 -5.53166504 18.22443359 -5.41918945 17.50292969 C-4.29766923 11.21064965 -2.26755759 6.23578338 0 0 Z " fill="#63D39E" transform="translate(12,64)"/>
<path d="M0 0 C11.76000108 0.59486387 21.71440028 5.38082081 29.69921875 14.08984375 C35.45243609 21.03286258 38.01049877 30.12825585 37.69921875 39.08984375 C34.86834984 41.09504256 32.84244498 41.1720079 29.51171875 40.77734375 C25.69921875 40.08984375 25.69921875 40.08984375 24.69921875 39.08984375 C24.42692992 37.40579653 24.18168163 35.71734886 23.94921875 34.02734375 C22.6699706 26.82807129 20.11210691 21.64628935 14.19921875 17.21484375 C8.69236974 13.68147926 3.04256844 12.38891754 -3.30078125 11.08984375 C-3.32766276 9.44409809 -3.34712248 7.79822962 -3.36328125 6.15234375 C-3.37488281 5.23582031 -3.38648437 4.31929688 -3.3984375 3.375 C-3.26599581 0.27586449 -3.10075586 0.12108215 0 0 Z " fill="#72D9A6" transform="translate(103.30078125,64.91015625)"/>
<path d="M0 0 C0.84416473 -0.00137466 1.68832947 -0.00274933 2.55807495 -0.00416565 C3.48595825 -0.00057037 4.41384155 0.0030249 5.36984253 0.00672913 C6.83331619 0.00651009 6.83331619 0.00651009 8.32635498 0.00628662 C11.56206459 0.00698516 14.79771715 0.01477485 18.03341675 0.02259827 C20.27258269 0.02446265 22.51174903 0.02588646 24.75091553 0.02688599 C30.65283326 0.03070953 36.55472649 0.04053845 42.45663452 0.05158997 C48.47571481 0.06180757 54.49479904 0.06638436 60.5138855 0.07142639 C72.33030253 0.08216084 84.14670135 0.09923533 95.96310425 0.12025452 C96.45810425 1.60525452 96.45810425 1.60525452 96.96310425 3.12025452 C95.52560425 5.80775452 95.52560425 5.80775452 93.96310425 8.12025452 C92.7176402 5.62932641 93.18634645 4.70944719 93.96310425 2.12025452 C82.29758571 2.22774347 70.63212929 2.34037446 58.9667244 2.45959377 C53.55017374 2.5147883 48.13361766 2.56820284 42.7170105 2.61756897 C37.49095705 2.66526359 32.26496909 2.71760837 27.03899384 2.77319527 C25.04389829 2.79359569 23.04878481 2.81231258 21.05365753 2.82932854 C18.26201385 2.85342365 15.47049358 2.88347137 12.67892456 2.91493225 C11.43814651 2.92356544 11.43814651 2.92356544 10.17230225 2.93237305 C6.60760444 2.97811956 3.39445382 3.16275434 -0.03689575 4.12025452 C0.16935425 4.69775452 0.37560425 5.27525452 0.58810425 5.87025452 C1.05265596 8.6575648 0.29495043 9.70056451 -1.03689575 12.12025452 C-1.8753838 10.66487884 -2.7075351 9.20585078 -3.53689575 7.74525452 C-4.2329895 6.52709045 -4.2329895 6.52709045 -4.94314575 5.28431702 C-6.03689575 3.12025452 -6.03689575 3.12025452 -6.03689575 1.12025452 C-3.76112107 -0.01763282 -2.52656151 -0.00316612 0 0 Z " fill="#B8EBD7" transform="translate(94.03689575195313,145.87974548339844)"/>
<path d="M0 0 C19.8 0 39.6 0 60 0 C59.00117906 3.99528378 57.63208209 6.65501165 55.5625 10.1875 C54.63630859 11.78658203 54.63630859 11.78658203 53.69140625 13.41796875 C52 16 52 16 50 17 C50.268125 16.34 50.53625 15.68 50.8125 15 C52.0244259 11.93829248 53.17646829 8.85858594 54.31640625 5.76953125 C55 4 55 4 56 2 C37.85 2 19.7 2 1 2 C0.67 3.32 0.34 4.64 0 6 C-0.66 6.66 -1.32 7.32 -2 8 C-1.125 2.25 -1.125 2.25 0 0 Z " fill="#9ADFBE" transform="translate(12,64)"/>
<path d="M0 0 C0.99 0.99 1.98 1.98 3 3 C2.67 3.99 2.34 4.98 2 6 C-18.04637474 6.1043931 -38.08801242 5.80406324 -58.13201904 5.53643799 C-62.75206154 5.47506496 -67.37212541 5.41534498 -71.9921875 5.35546875 C-80.99481281 5.23855923 -89.9974137 5.11987388 -99 5 C-99 4.01 -99 3.02 -99 2 C-98.67 2.66 -98.34 3.32 -98 4 C-65.66 4 -33.32 4 0 4 C0 2.68 0 1.36 0 0 Z " fill="#C6F0D6" transform="translate(117,50)"/>
<path d="M0 0 C6.23309648 9.34964473 6.37339931 22.15211832 6.375 33 C6.3764502 34.04945801 6.37790039 35.09891602 6.37939453 36.18017578 C6.29133918 42.40044546 5.56792734 47.979159 4 54 C3.67 54 3.34 54 3 54 C2.97287934 52.56260487 2.95354933 51.12506137 2.9375 49.6875 C2.92589844 48.88699219 2.91429687 48.08648437 2.90234375 47.26171875 C3 45 3 45 4 42 C4.1464714 40.44733347 4.24694074 38.89004338 4.31640625 37.33203125 C4.35830078 36.43935547 4.40019531 35.54667969 4.44335938 34.62695312 C4.48267578 33.69818359 4.52199219 32.76941406 4.5625 31.8125 C4.60568359 30.87212891 4.64886719 29.93175781 4.69335938 28.96289062 C4.79938665 26.64207146 4.90145029 24.32114675 5 22 C4.34 22 3.68 22 3 22 C3 18.37 3 14.74 3 11 C2.34 11 1.68 11 1 11 C-0.28317892 7.15046324 -0.06643637 4.05261865 0 0 Z " fill="#D0F9E7" transform="translate(197,68)"/>
<path d="M0 0 C9.05715935 0.05567926 18.76322369 0.98631492 26.875 5.25 C26.28219238 5.1785376 25.68938477 5.1070752 25.07861328 5.03344727 C18.61065878 4.31261722 12.25369417 4.12812639 5.75 4.1875 C4.31527344 4.19426758 4.31527344 4.19426758 2.8515625 4.20117188 C0.52597242 4.21279983 -1.7994776 4.22913898 -4.125 4.25 C-4.455 4.91 -4.785 5.57 -5.125 6.25 C-5.785 4.6 -6.445 2.95 -7.125 1.25 C-5.28791637 -0.58708363 -2.46883319 0.0331387 0 0 Z " fill="#A8E7D0" transform="translate(107.125,1.75)"/>
<path d="M0 0 C2.72426311 2.35277269 3.8141763 4.62496331 5 8 C4 9 4 9 0.4375 9.1875 C-6.75470381 9.12912172 -13.88674684 7.97752681 -21 7 C-21 6.67 -21 6.34 -21 6 C-18.45826023 5.97283176 -15.91681585 5.95308031 -13.375 5.9375 C-12.66214844 5.92912109 -11.94929688 5.92074219 -11.21484375 5.91210938 C-7.02655562 5.89289704 -3.1271538 6.1732673 1 7 C0.67 4.69 0.34 2.38 0 0 Z " fill="#C2EDD4" transform="translate(103,191)"/>
<path d="M0 0 C1.37780724 2.75561448 0.92023755 4.09771234 0 7 C-0.62390625 7.43183594 -1.2478125 7.86367187 -1.890625 8.30859375 C-4.56718587 10.45479904 -5.29713443 12.45949802 -6.5625 15.625 C-7.75390625 18.6015625 -7.75390625 18.6015625 -9 21 C-9.99 21.33 -10.98 21.66 -12 22 C-12 22.99 -12 23.98 -12 25 C-12.66 25 -13.32 25 -14 25 C-12.57048467 21.14805475 -10.77695533 17.72243219 -8.6875 14.1875 C-8.07132813 13.14464844 -7.45515625 12.10179688 -6.8203125 11.02734375 C-4.591952 7.3213794 -2.31705194 3.65111215 0 0 Z " fill="#A7E4C6" transform="translate(52,115)"/>
<path d="M0 0 C0 0.66 0 1.32 0 2 C-0.99 2 -1.98 2 -3 2 C-3.09925781 2.59554688 -3.19851562 3.19109375 -3.30078125 3.8046875 C-4.53392859 7.67635679 -7.74465613 9.75037212 -11 12 C-14.4375 13.375 -14.4375 13.375 -17 14 C-5.85714286 0 -5.85714286 0 0 0 Z " fill="#97DFC0" transform="translate(50,19)"/>
<path d="M0 0 C0 3.72047814 -0.97203752 4.62861872 -3.25 7.5 C-4.15492188 8.66015625 -4.15492188 8.66015625 -5.078125 9.84375 C-6.9118076 11.90105243 -8.73855842 13.43900493 -11 15 C-10.25 10.25 -10.25 10.25 -8 8 C-7.01 8 -6.02 8 -5 8 C-4.9175 7.05125 -4.835 6.1025 -4.75 5.125 C-4 2 -4 2 -1.9375 0.625 C-1.298125 0.41875 -0.65875 0.2125 0 0 Z " fill="#A8E4C3" transform="translate(186,154)"/>
<path d="M0 0 C6.89431955 0.04349728 12.87515218 0.798375 19 4 C16 5 16 5 13.9375 4.0625 C9.65213729 2.51247519 5.5115974 2.8423131 1 3 C1 5.64 1 8.28 1 11 C0.34 11 -0.32 11 -1 11 C-1.02688151 9.35425434 -1.04634123 7.70838587 -1.0625 6.0625 C-1.07410156 5.14597656 -1.08570312 4.22945313 -1.09765625 3.28515625 C-1 1 -1 1 0 0 Z " fill="#BBE8D3" transform="translate(101,65)"/>
<path d="M0 0 C0.70703125 1.640625 0.70703125 1.640625 1 4 C-0.36328125 6.796875 -0.36328125 6.796875 -2.3125 9.75 C-3.26576172 11.22726563 -3.26576172 11.22726563 -4.23828125 12.734375 C-4.81964844 13.48203125 -5.40101563 14.2296875 -6 15 C-6.66 15 -7.32 15 -8 15 C-6.51194289 9.19657726 -3.40902445 4.82409121 0 0 Z " fill="#A4E4C3" transform="translate(177,65)"/>
<path d="M0 0 C2.64 0 5.28 0 8 0 C6.02 0.99 6.02 0.99 4 2 C4.309375 2.86625 4.309375 2.86625 4.625 3.75 C5.08661261 6.51967567 4.42944945 7.64561267 3 10 C0.59185923 6.48812804 -0.36629408 4.27343092 0 0 Z " fill="#82DBB5" transform="translate(90,148)"/>
<path d="M0 0 C4.63983372 6.95975057 4.23973879 13.88883758 4 22 C3.67 22 3.34 22 3 22 C3 18.37 3 14.74 3 11 C2.34 11 1.68 11 1 11 C-0.28317892 7.15046324 -0.06643637 4.05261865 0 0 Z " fill="#B0E9CD" transform="translate(197,68)"/>
<path d="M0 0 C0.66 0.33 1.32 0.66 2 1 C-2.86744914 5.73935838 -7.44418777 7.40639347 -14 9 C-10.38216587 4.55993084 -5.28163799 2.01511972 0 0 Z " fill="#ACE9D3" transform="translate(64,10)"/>
<path d="M0 0 C0.556875 0.28875 1.11375 0.5775 1.6875 0.875 C4.02046961 2.05222735 4.02046961 2.05222735 6.625 3 C9 4 9 4 11 6 C11 6.99 11 7.98 11 9 C8.03469503 7.64199529 5.70868729 6.07571737 3.25 3.9375 C2.63640625 3.41027344 2.0228125 2.88304687 1.390625 2.33984375 C0.93171875 1.89769531 0.4728125 1.45554688 0 1 C0 0.67 0 0.34 0 0 Z " fill="#A7E2BF" transform="translate(35,171)"/>
<path d="M0 0 C1.5 1.375 1.5 1.375 3 3 C3 3.66 3 4.32 3 5 C-3.6 5 -10.2 5 -17 5 C-17 4.67 -17 4.34 -17 4 C-11.39 4 -5.78 4 0 4 C0 2.68 0 1.36 0 0 Z " fill="#B7E5C8" transform="translate(117,50)"/>
<path d="M0 0 C0.99 0 1.98 0 3 0 C1.35821735 4.77609498 -1.26546702 8.79382904 -4 13 C-4 9.70342144 -3.25666731 7.83635572 -2 4.8125 C-1.62875 3.91144531 -1.2575 3.01039062 -0.875 2.08203125 C-0.441875 1.05142578 -0.441875 1.05142578 0 0 Z " fill="#BEEBD3" transform="translate(67,68)"/>
<path d="M0 0 C1.39456452 0.00667256 2.78911118 0.01863093 4.18359375 0.03515625 C4.89451172 0.03966797 5.60542969 0.04417969 6.33789062 0.04882812 C8.09899388 0.06064761 9.86005411 0.07858362 11.62109375 0.09765625 C11.62109375 0.42765625 11.62109375 0.75765625 11.62109375 1.09765625 C7.00109375 1.09765625 2.38109375 1.09765625 -2.37890625 1.09765625 C-2.70890625 2.41765625 -3.03890625 3.73765625 -3.37890625 5.09765625 C-4.03890625 5.75765625 -4.69890625 6.41765625 -5.37890625 7.09765625 C-4.34049222 0.12544775 -4.34049222 0.12544775 0 0 Z " fill="#88DAB7" transform="translate(15.37890625,64.90234375)"/>
<path d="M0 0 C0 3.2275749 -0.13727175 5.88090554 -1 9 C-3.5625 10.375 -3.5625 10.375 -6 11 C-4.54955729 6.89041233 -2.48889248 3.56741255 0 0 Z " fill="#ABE5C7" transform="translate(144,122)"/>
<path d="M0 0 C3.06081203 2.75473082 4.89882863 4.99574049 6 9 C5.625 11.3125 5.625 11.3125 5 13 C5 12.01 5 11.02 5 10 C4.34 10 3.68 10 3 10 C3 8.35 3 6.7 3 5 C2.01 4.67 1.02 4.34 0 4 C0 2.68 0 1.36 0 0 Z " fill="#BAEAD6" transform="translate(133,81)"/>
<path d="M0 0 C1.98 1.65 3.96 3.3 6 5 C5.625 7.4375 5.625 7.4375 5 10 C4.01 10.495 4.01 10.495 3 11 C3.0928125 9.6078125 3.0928125 9.6078125 3.1875 8.1875 C3.32377263 5.02056752 3.32377263 5.02056752 1.5 3.25 C1.005 2.8375 0.51 2.425 0 2 C0 1.34 0 0.68 0 0 Z " fill="#C0EAD5" transform="translate(176,34)"/>
<path d="M0 0 C3.48331435 3.01887244 4.79157144 5.56909529 6 10 C5.34 10 4.68 10 4 10 C1.1605948 6.32547562 0 4.73113419 0 0 Z " fill="#BBE5CE" transform="translate(106,31)"/>
<path d="M0 0 C0.33 0 0.66 0 1 0 C1 1.65 1 3.3 1 5 C1.66 5 2.32 5 3 5 C3.33 6.65 3.66 8.3 4 10 C1.4375 7.8125 1.4375 7.8125 -1 5 C-0.8125 2.1875 -0.8125 2.1875 0 0 Z " fill="#B1EACB" transform="translate(27,157)"/>
<path d="M0 0 C1.37245106 2.74490212 0.93580311 4.12060581 0 7 C-2.0625 8.3125 -2.0625 8.3125 -4 9 C-2.94124926 5.59687262 -1.99097846 2.98646769 0 0 Z " fill="#94DEB9" transform="translate(52,115)"/>
<path d="M0 0 C4.42857143 5.14285714 4.42857143 5.14285714 5 9 C4.34 9 3.68 9 3 9 C0.56839395 5.63316085 0 4.26649636 0 0 Z " fill="#BCE8D1" transform="translate(112,41)"/>
<path d="M0 0 C0.99 0 1.98 0 3 0 C1.81323934 4.10801767 1.10551666 5.89448334 -2 9 C-1.34 6.03 -0.68 3.06 0 0 Z " fill="#C1E8CF" transform="translate(49,98)"/>
</svg>
