<?xml version="1.0" encoding="UTF-8"?>
<svg version="1.1" xmlns="http://www.w3.org/2000/svg" width="1603" height="722">
<path d="M0 0 C528.99 0 1057.98 0 1603 0 C1603 238.26 1603 476.52 1603 722 C1074.01 722 545.02 722 0 722 C0 483.74 0 245.48 0 0 Z " fill="#FEFEFE" transform="translate(0,0)"/>
<path d="M0 0 C1.20437572 0.58343937 2.40880805 1.16676189 3.61328125 1.75 C23.47206123 11.44560052 40.10473246 22.6987329 56 38 C56.87688477 38.8360376 56.87688477 38.8360376 57.77148438 39.68896484 C64.17800604 45.82017922 70.37293047 52.08510829 75.9375 59 C76.75089844 60.010625 77.56429688 61.02125 78.40234375 62.0625 C80 65 80 65 80.04296875 68.0078125 C78.75439661 71.70461496 76.95582847 73.93550654 74.375 76.875 C73.92495605 77.39457275 73.47491211 77.91414551 73.01123047 78.44946289 C71.68522621 79.97599754 70.3428687 81.48827947 69 83 C67.70806167 84.4789294 66.41635258 85.95805911 65.125 87.4375 C64.56941406 88.06398438 64.01382813 88.69046875 63.44140625 89.3359375 C62.26045677 90.69931007 61.1503419 92.12374135 60.0625 93.5625 C57.04941283 97.1234212 53.54960628 99.98596834 50 103 C49.08347656 103.81597656 48.16695312 104.63195312 47.22265625 105.47265625 C25.36310905 124.76879992 -0.20900029 138.60643541 -29 144 C-30.40378906 144.30550781 -30.40378906 144.30550781 -31.8359375 144.6171875 C-51.44393908 148.37410119 -70.89880101 146.08545073 -90 141 C-91.21743896 140.67902344 -91.21743896 140.67902344 -92.45947266 140.3515625 C-111.69903559 135.08111787 -129.10556878 124.86518363 -145 113 C-145.92296875 112.32066406 -146.8459375 111.64132812 -147.796875 110.94140625 C-162.80729297 99.27421773 -176.45293747 84.82059379 -187 69 C-186.72620361 64.80407031 -185.14817949 62.49136626 -182.5 59.3125 C-181.77425781 58.44109375 -181.04851562 57.5696875 -180.30078125 56.671875 C-170.92704091 45.78624105 -161.15207327 35.10373328 -150 26 C-149.21238281 25.3503125 -148.42476563 24.700625 -147.61328125 24.03125 C-106.77406291 -8.12744975 -48.89562576 -24.25829495 0 0 Z " fill="#FDFEFD" transform="translate(418,363)"/>
<path d="M0 0 C26.73 0 53.46 0 81 0 C81 90.75 81 181.5 81 275 C80.34 275 79.68 275 79 275 C77.5546875 273.49609375 77.5546875 273.49609375 75.875 271.4375 C72.22000598 267.16339475 68.33710842 263.56972115 64 260 C63.47905762 259.56671387 62.95811523 259.13342773 62.42138672 258.68701172 C50.63338535 248.91280772 38.39943357 240.34506401 25.0625 232.8125 C24.39629639 232.43270996 23.73009277 232.05291992 23.04370117 231.66162109 C15.55115998 227.5298154 7.93848536 224.47308735 0 221 C0 148.07 0 75.14 0 0 Z " fill="#446B4C" transform="translate(429,102)"/>
<path d="M0 0 C1.1152002 0.49862549 1.1152002 0.49862549 2.25292969 1.00732422 C31.38209637 14.0405979 58.76488677 32.99198537 79 58 C79.67933594 58.80308594 80.35867188 59.60617187 81.05859375 60.43359375 C85.40121436 65.61914938 89.49684452 70.94368248 93.4375 76.4375 C93.86264893 77.02869629 94.28779785 77.61989258 94.72583008 78.22900391 C100.79691568 86.79749384 100.79691568 86.79749384 100 92 C98.54808677 94.57196057 97.08895714 96.86470146 95.375 99.25 C94.87991943 99.94963867 94.38483887 100.64927734 93.87475586 101.37011719 C79.12144362 121.91994562 61.73278121 141.3399095 41 156 C40.13810059 156.62044189 40.13810059 156.62044189 39.25878906 157.25341797 C4.31222785 182.23302843 -39.45838898 196.83528657 -82.6171875 190.09375 C-88.80504437 188.96984862 -94.90892057 187.56089062 -101 186 C-101.90363281 185.77006348 -102.80726563 185.54012695 -103.73828125 185.30322266 C-132.42935799 177.79572424 -158.34186052 163.21172595 -180 143 C-181.30835048 141.87017688 -182.62069073 140.74495294 -183.9375 139.625 C-193.33948924 131.37466004 -201.33159254 122.47197311 -208.84863281 112.52294922 C-209.80382032 111.25949297 -210.77143203 110.00544077 -211.7421875 108.75390625 C-213.19901555 106.86002978 -214.60772994 104.94185035 -216 103 C-216.71671875 102.00742187 -217.4334375 101.01484375 -218.171875 99.9921875 C-218.91953125 98.92226563 -219.6671875 97.85234375 -220.4375 96.75 C-221.13746094 95.75484375 -221.83742187 94.7596875 -222.55859375 93.734375 C-224 91 -224 91 -223.71582031 89.03491211 C-222.51263469 85.61453279 -220.37046134 82.7659594 -218.3125 79.8125 C-217.82338135 79.1097998 -217.3342627 78.40709961 -216.83032227 77.68310547 C-203.16550381 58.35050517 -186.99950007 40.26777643 -167.78808594 26.30517578 C-165.89502255 24.92337391 -164.03059531 23.50723335 -162.1640625 22.08984375 C-146.35594336 10.29866696 -128.73559068 1.15068285 -110 -5 C-109.12988281 -5.30164063 -108.25976562 -5.60328125 -107.36328125 -5.9140625 C-99.76838545 -8.39966476 -91.85683375 -9.63573807 -84 -11 C-82.57530396 -11.26127686 -82.57530396 -11.26127686 -81.12182617 -11.52783203 C-54.93818817 -15.48803817 -24.00030258 -11.125425 0 0 Z M-161.67578125 51.859375 C-163.70522324 53.72850812 -165.77272106 55.52664655 -167.875 57.3125 C-175.97261914 64.41624637 -183.48016825 72.0468126 -190.3125 80.375 C-190.79887939 80.94549072 -191.28525879 81.51598145 -191.78637695 82.10375977 C-193.97807878 84.86163443 -194.99467655 86.53153669 -195.03515625 90.09375 C-193.85151687 93.41687339 -192.42297075 95.45084898 -190.125 98.125 C-188.89910156 99.55585938 -188.89910156 99.55585938 -187.6484375 101.015625 C-186.77445313 102.00046875 -185.90046875 102.9853125 -185 104 C-183.71996094 105.44632813 -183.71996094 105.44632813 -182.4140625 106.921875 C-179.64865408 109.9873424 -176.83816474 113.00218849 -174 116 C-173.49984375 116.53415527 -172.9996875 117.06831055 -172.484375 117.61865234 C-160.86420993 129.96140975 -147.72601904 139.6034493 -133 148 C-132.30422852 148.40105957 -131.60845703 148.80211914 -130.89160156 149.21533203 C-119.3392669 155.80560682 -107.90491125 160.74609858 -95 164 C-93.76709229 164.31324219 -93.76709229 164.31324219 -92.50927734 164.6328125 C-57.5949845 173.1540842 -22.06590214 166.44560522 9 149 C9.64888184 148.63567871 10.29776367 148.27135742 10.96630859 147.89599609 C22.27501966 141.42711261 32.16808108 133.50839137 42 125 C42.52916016 124.5467334 43.05832031 124.0934668 43.60351562 123.62646484 C49.22895776 118.79459827 54.30633009 113.7390782 59 108 C59.6703125 107.18273437 60.340625 106.36546875 61.03125 105.5234375 C63.0463069 103.03469185 65.02636153 100.52164247 67 98 C67.81791016 97.00226563 67.81791016 97.00226563 68.65234375 95.984375 C71.30887677 92.70892973 71.30887677 92.70892973 71.890625 88.6796875 C70.75192268 85.25359192 68.91657031 82.72025977 66.6875 79.9375 C66.21675049 79.34606201 65.74600098 78.75462402 65.26098633 78.14526367 C53.90158538 64.29366831 40.71075552 51.27306918 26 41 C25.16275391 40.4121875 25.16275391 40.4121875 24.30859375 39.8125 C16.40874786 34.34199168 8.14915531 29.88588436 -0.50390625 25.7265625 C-4 24 -4 24 -6.4921875 22.4296875 C-9.70133769 20.60017197 -13.04323239 19.55107336 -16.5625 18.5 C-17.27067871 18.28496826 -17.97885742 18.06993652 -18.70849609 17.84838867 C-70.30219177 2.36096072 -122.02856141 15.26194131 -161.67578125 51.859375 Z " fill="#8FBC81" transform="translate(426,341)"/>
<path d="M0 0 C23.43 0 46.86 0 71 0 C71.165 11.653125 71.33 23.30625 71.5 35.3125 C71.57283203 38.97126221 71.64566406 42.63002441 71.72070312 46.3996582 C71.75683594 50.92028809 71.75683594 50.92028809 71.7635498 53.04679871 C71.77571348 54.50984756 71.80359774 55.97282386 71.84460449 57.43534851 C72.13219325 68.24719586 70.45192386 74.71310384 63 83 C61.95591001 84.4628434 60.92990576 85.93911236 59.9375 87.4375 C59.53402344 88.03433594 59.13054687 88.63117188 58.71484375 89.24609375 C57.76026335 91.58820631 58.1976831 92.62387468 59 95 C60.19159842 96.77645731 60.19159842 96.77645731 61.68145752 98.50495911 C72.28099585 112.22757771 72.64593293 124.72173895 72.21672726 141.57147956 C72.14053434 145.07981127 72.13457244 148.58833488 72.12042236 152.09736633 C72.08346051 158.71006539 71.98546708 165.32031857 71.86422849 171.93195134 C71.71570888 180.21522854 71.65098554 188.49892225 71.5859375 196.78320312 C71.46983091 211.52402968 71.22935744 226.25953699 71 241 C47.57 241 24.14 241 0 241 C0 161.47 0 81.94 0 0 Z " fill="#416949" transform="translate(122,338)"/>
<path d="M0 0 C9.48435449 8.80412415 15.14402271 20.24130901 17.75 32.75 C17.75 38.03 17.75 43.31 17.75 48.75 C6.86 48.75 -4.03 48.75 -15.25 48.75 C-16.24 43.47 -17.23 38.19 -18.25 32.75 C-22.61577465 24.01845071 -27.50386239 20.75871087 -36.62890625 17.58203125 C-47.00956129 14.28683077 -56.98689403 15.08418708 -66.734375 20.00390625 C-72.15860387 23.25667095 -75.44406712 26.61461214 -77.25 32.75 C-77.96431913 37.75023391 -77.10539288 41.47168342 -74.69921875 45.828125 C-67.89268026 54.85458575 -55.64986175 56.51669011 -45.29321289 58.73999023 C2.71573565 69.10510517 2.71573565 69.10510517 16 89.4375 C22.99034644 101.84816854 23.41280758 115.91603505 20.125 129.5625 C16.08376365 143.11335896 7.92107068 153.92880668 -4.265625 161.18359375 C-24.05891216 171.57247876 -50.31495584 173.55128588 -71.74609375 167.07421875 C-89.08820675 160.52017605 -102.96782629 150.68298754 -110.96875 133.6171875 C-111.60296875 132.19792969 -111.60296875 132.19792969 -112.25 130.75 C-112.72953125 129.73292969 -112.72953125 129.73292969 -113.21875 128.6953125 C-116.49806459 121.05450951 -117.45211562 112.00564552 -117.25 103.75 C-105.89570132 102.79956543 -94.63923617 102.63966294 -83.25 102.75 C-83.00878418 103.65709717 -83.00878418 103.65709717 -82.76269531 104.58251953 C-82.01985727 107.34988266 -81.26009955 110.11233046 -80.5 112.875 C-80.24734375 113.82632813 -79.9946875 114.77765625 -79.734375 115.7578125 C-77.1948863 124.89997181 -73.692389 130.95655425 -65.25 135.75 C-53.05977849 141.03732499 -39.5690947 141.652494 -27.1015625 136.9375 C-21.42131122 134.40355891 -17.89588248 131.14608145 -15.140625 125.4609375 C-13.09213437 119.22561952 -13.13516721 112.10353589 -15.9375 106.1875 C-23.92591831 97.76727529 -33.70589252 94.24322559 -44.8125 91.6875 C-45.86099121 91.43419922 -46.90948242 91.18089844 -47.98974609 90.91992188 C-52.68153829 89.7923424 -57.38154298 88.71231778 -62.09765625 87.69140625 C-78.06818682 84.20731549 -93.83633771 78.84260806 -103.78515625 65.078125 C-111.227445 53.24984742 -113.39010281 39.36113859 -110.86328125 25.65185547 C-108.80748391 17.49650744 -105.01827988 10.80023246 -99.25 4.75 C-98.62738281 4.07582031 -98.00476563 3.40164063 -97.36328125 2.70703125 C-72.84472823 -21.43790573 -26.10470473 -21.18210327 0 0 Z " fill="#3D4145" transform="translate(700.25,293.25)"/>
<path d="M0 0 C23.1 0 46.2 0 70 0 C70 56.43 70 112.86 70 171 C46.9 171 23.8 171 0 171 C0 114.57 0 58.14 0 0 Z " fill="#416849" transform="translate(23,408)"/>
<path d="M0 0 C0.79148437 0.29003906 1.58296875 0.58007812 2.3984375 0.87890625 C15.6103089 6.26736574 26.94245427 15.96150217 33 29 C38.43691913 44.09093578 38 53.16334059 38 71 C7.97 71 -22.06 71 -53 71 C-48.07046908 88.05523805 -48.07046908 88.05523805 -36.125 97.95703125 C-28.50322598 101.69786519 -20.34941165 102.33735291 -12.109375 100.27734375 C-7.02995533 98.3991751 -3.50659094 96.22853614 0 92 C0.721875 91.13375 1.44375 90.2675 2.1875 89.375 C3.52012348 87.62880372 4.7815411 85.82768835 6 84 C26.53191489 88.19148936 26.53191489 88.19148936 36 91 C32.48751561 102.58950163 24.77584376 113.31609432 14.11328125 119.265625 C-4.13978549 128.83218201 -24.81289933 131.29064915 -44.73144531 125.33251953 C-60.27839925 120.15369839 -72.48372017 109.54643211 -80 95 C-88.47118737 74.76571307 -88.86210199 52.18654115 -80.71484375 31.78125 C-77.34773983 24.35298731 -72.7765073 18.70481307 -67 13 C-66.45859375 12.43667969 -65.9171875 11.87335938 -65.359375 11.29296875 C-49.08070914 -4.2868655 -20.59517027 -7.61694392 0 0 Z " fill="#3C4044" transform="translate(1279,335)"/>
<path d="M0 0 C10.89 0 21.78 0 33 0 C33 32.01 33 64.02 33 97 C41.40157864 96.10817449 41.40157864 96.10817449 46.4375 90.625 C46.90502686 90.08335205 47.37255371 89.5417041 47.85424805 88.98364258 C49.26097924 87.34137906 50.63528759 85.67726904 52 84 C52.72960937 83.10410156 53.45921875 82.20820313 54.2109375 81.28515625 C55.63319976 79.52715551 57.05238655 77.76666293 58.46875 76.00390625 C62.19119677 71.58637297 66.15038659 67.40107717 70.12817383 63.21362305 C70.70075928 62.60945557 71.27334473 62.00528809 71.86328125 61.3828125 C72.37157471 60.85059082 72.87986816 60.31836914 73.40356445 59.77001953 C75.14450968 57.95340986 75.14450968 57.95340986 76.61108398 55.3190918 C79.71372825 52.30713289 81.50983981 52.43158698 85.70428467 52.43351746 C86.58046448 52.45932388 87.45664429 52.48513031 88.359375 52.51171875 C89.71594208 52.52233086 89.71594208 52.52233086 91.09991455 52.53315735 C93.98412329 52.56111235 96.86637965 52.62385187 99.75 52.6875 C101.70700318 52.71258149 103.66403684 52.73539492 105.62109375 52.75585938 C110.414813 52.81094261 115.20707568 52.8972222 120 53 C118.57567584 55.97816718 117.22096735 57.97931682 114.8125 60.25 C112.29349815 62.63331791 109.98650734 65.13360429 107.71484375 67.75 C104.15805075 71.84647366 100.47653869 75.80819585 96.75 79.75 C91.27671743 85.56498137 85.82364537 91.39485855 80.45703125 97.30859375 C78.82972013 99.09113328 77.18132073 100.85466517 75.51171875 102.59765625 C74.76535156 103.39042969 74.01898437 104.18320312 73.25 105 C72.59515625 105.680625 71.9403125 106.36125 71.265625 107.0625 C69.82935744 108.87428668 69.82935744 108.87428668 70.00390625 110.86328125 C71.45861916 113.98378305 73.53000953 116.53351591 75.6875 119.1875 C76.17154297 119.79335938 76.65558594 120.39921875 77.15429688 121.0234375 C81.64287346 126.61855319 86.21992162 132.14234616 90.79443359 137.66723633 C94.99695684 142.75119414 99.10371276 147.90062188 103.15917969 153.10229492 C105.97643486 156.71183765 108.84117191 160.2757967 111.75 163.8125 C123 177.49493243 123 177.49493243 123 179 C86.95947225 181.99086492 86.95947225 181.99086492 77.86230469 177.42529297 C73.26742219 173.34193858 70.79688672 168.19995459 68.31640625 162.65576172 C66.09770354 158.17967713 62.91975766 154.51929038 59.75 150.6875 C56.40295827 146.49680903 53.14193011 142.31764221 50.25 137.796875 C49.82364258 137.14372314 49.39728516 136.49057129 48.95800781 135.81762695 C47.8358513 134.0711178 46.75215572 132.30006004 45.671875 130.52734375 C42.39308491 126.90997271 42.39308491 126.90997271 33 127 C33 144.16 33 161.32 33 179 C22.11 179 11.22 179 0 179 C0 119.93 0 60.86 0 0 Z " fill="#3C4044" transform="translate(742,281)"/>
<path d="M0 0 C26.73 0 53.46 0 81 0 C81 42.24 81 84.48 81 128 C70.125 128 70.125 128 64.5625 127 C42.5560692 123.97604712 22.02231968 127.20304833 0 131 C0 87.77 0 44.54 0 0 Z " fill="#42694A" transform="translate(320,185)"/>
<path d="M0 0 C9.16765985 7.04407762 14.39835511 17.95301553 17 29 C17.17299338 29.62643024 17.34598677 30.25286049 17.52422237 30.89827347 C18.31033838 34.37090603 18.12946561 37.8973481 18.11352539 41.44042969 C18.11367142 42.28957443 18.11381744 43.13871918 18.1139679 44.01359558 C18.11327201 46.8163815 18.10549476 49.61910071 18.09765625 52.421875 C18.09579092 54.36671919 18.09436756 56.31156386 18.09336853 58.25640869 C18.08955242 63.37247009 18.07972984 68.48850305 18.06866455 73.60455322 C18.05843098 78.82620865 18.05386674 84.04786868 18.04882812 89.26953125 C18.03810678 99.51303533 18.02051728 109.75651085 18 120 C7.11 120 -3.78 120 -15 120 C-15.01458252 117.62369385 -15.02916504 115.2473877 -15.04418945 112.79907227 C-15.09465782 104.92398422 -15.16127424 97.04909137 -15.23571491 89.17419529 C-15.28033148 84.40236176 -15.3196066 79.6306119 -15.34643555 74.85864258 C-15.37255573 70.24840541 -15.41301914 65.63849172 -15.46318626 61.02845573 C-15.47979625 59.27475971 -15.49134691 57.52100782 -15.49761391 55.76724434 C-15.47788003 38.89666094 -15.47788003 38.89666094 -23.9296875 24.73046875 C-30.07718913 19.59208531 -37.17304057 18.26976782 -45.03515625 18.54296875 C-49.9636839 19.30270226 -53.82375882 21.35993626 -58 24 C-58.9075 24.53625 -59.815 25.0725 -60.75 25.625 C-67.52673859 32.77822406 -70.12599577 40.83403196 -70.20532227 50.43066406 C-70.21522186 51.17251953 -70.22512146 51.914375 -70.23532104 52.67871094 C-70.26684147 55.12431679 -70.29165595 57.56994205 -70.31640625 60.015625 C-70.33698395 61.7138519 -70.35798064 63.41207377 -70.37937927 65.11029053 C-70.43451567 69.5752759 -70.48396207 74.04030685 -70.53222656 78.50537109 C-70.58250322 83.06351772 -70.63815709 87.62159834 -70.69335938 92.1796875 C-70.80083781 101.11973732 -70.90180856 110.05984335 -71 119 C-81.56 119 -92.12 119 -103 119 C-103 77.75 -103 36.5 -103 -6 C-92.77 -6 -82.54 -6 -72 -6 C-72 -1.05 -72 3.9 -72 9 C-70.88625 7.989375 -69.7725 6.97875 -68.625 5.9375 C-48.63022344 -11.36095818 -22.48034512 -15.34322855 0 0 Z " fill="#3C4044" transform="translate(1444,341)"/>
<path d="M0 0 C1.07378906 -0.020625 2.14757813 -0.04125 3.25390625 -0.0625 C17.45198694 -0.13084215 31.24901127 3.54996519 41.875 13.375 C47.02029479 18.9139239 51.80254573 25.89081716 52.15234375 33.61328125 C52.10207031 34.48339844 52.05179688 35.35351562 52 36.25 C41.60886221 37.55618118 31.48925548 38.58358056 21 38.25 C20.79246094 37.71890625 20.58492187 37.1878125 20.37109375 36.640625 C17.88576433 30.9420454 15.65470607 28.82032094 10 26.25 C3.66897863 24.13965954 -4.24614299 24.30715153 -10.5625 26.5 C-14.95899099 28.63720269 -14.95899099 28.63720269 -18 32.25 C-18.91232729 36.88114711 -18.72432766 40.13936426 -16.125 44.125 C-7.31529828 50.11559717 4.96320326 50.94489054 15.21289062 52.91210938 C29.47839219 55.75023278 44.12697452 59.74021282 52.87890625 72.2578125 C57.74447752 80.9039496 57.23954959 92.1015523 55.3125 101.66015625 C51.63265167 112.56170693 44.31818555 120.42389469 34.17578125 125.7265625 C23.3020368 130.5877659 12.30757049 131.59916947 0.5 131.5625 C-0.53769531 131.57861328 -1.57539062 131.59472656 -2.64453125 131.61132812 C-17.65091608 131.62067208 -33.29522401 126.76857782 -44.328125 116.18359375 C-50.18017181 109.4154555 -56 99.39672163 -56 90.25 C-52.18803848 89.91031579 -48.3753608 89.57942405 -44.5625 89.25 C-43.49322266 89.15460938 -42.42394531 89.05921875 -41.32226562 88.9609375 C-35.18697229 88.43559128 -29.15747494 88.14640421 -23 88.25 C-22.76925781 88.84167969 -22.53851562 89.43335938 -22.30078125 90.04296875 C-19.67541697 96.40402925 -17.1707766 100.64316118 -10.82421875 103.859375 C-6.96538919 105.45129972 -3.26585875 105.71130947 0.875 105.625 C1.57463867 105.61557373 2.27427734 105.60614746 2.99511719 105.59643555 C9.83989047 105.39731198 15.18850797 104.51290822 20.5625 100.1875 C22.67407938 95.87253343 22.77489399 91.96327274 22 87.25 C18.97592103 82.5324368 13.45453164 80.82767473 8.18774414 79.58813477 C4.90159248 78.93929308 1.61068321 78.33458364 -1.6875 77.75 C-25.52097 73.45193386 -25.52097 73.45193386 -33.4375 69.3125 C-34.38496094 68.82910156 -35.33242187 68.34570312 -36.30859375 67.84765625 C-41.16249517 64.96631274 -44.41070279 62.1515236 -47.25 57.25 C-47.75015625 56.404375 -48.2503125 55.55875 -48.765625 54.6875 C-52.80761408 46.70585068 -52.46504966 34.46608196 -50.09375 26.0234375 C-48.90627487 23.56475501 -47.61659004 21.44701465 -46 19.25 C-45.5771875 18.62222656 -45.154375 17.99445313 -44.71875 17.34765625 C-37.69355833 8.0147708 -26.9329652 4.03948083 -16 1.25 C-15.09012329 0.98630615 -15.09012329 0.98630615 -14.16186523 0.71728516 C-9.53612392 -0.28256452 -4.71270439 0.02199629 0 0 Z " fill="#3D4145" transform="translate(1538,331.75)"/>
<path d="M0 0 C10.89 0 21.78 0 33 0 C33 48.84 33 97.68 33 148 C59.4 148 85.8 148 113 148 C113 157.9 113 167.8 113 178 C75.71 178 38.42 178 0 178 C0 119.26 0 60.52 0 0 Z " fill="#3B3F43" transform="translate(1070,282)"/>
<path d="M0 0 C23.43 0 46.86 0 71 0 C71 23.1 71 46.2 71 70 C60.11 75.94 60.11 75.94 49 82 C33.75303142 91.72997337 19.85094348 102.04083149 6.7421875 114.46875 C4 117 4 117 0 120 C0 80.4 0 40.8 0 0 Z " fill="#42694A" transform="translate(221,256)"/>
<path d="M0 0 C1.30520919 3.91562757 0.28155922 6.71206194 -0.75 10.5625 C-0.92015625 11.22830078 -1.0903125 11.89410156 -1.265625 12.58007812 C-1.82215781 14.7264124 -2.40923516 16.86284874 -3 19 C-3.20802246 19.79462646 -3.41604492 20.58925293 -3.63037109 21.40795898 C-5.37597255 27.7288152 -7.91868959 33.22978901 -11.125 38.9375 C-11.851427 40.24400513 -11.851427 40.24400513 -12.5925293 41.5769043 C-16.45710529 48.37047544 -20.75107623 54.19690698 -26 60 C-26.46148437 60.60199219 -26.92296875 61.20398438 -27.3984375 61.82421875 C-35.6166379 72.50787927 -48.22028244 79.86502225 -60 86 C-60.88816406 86.48210937 -61.77632813 86.96421875 -62.69140625 87.4609375 C-78.43914449 95.39491249 -95.41773039 95.56381854 -112.6328125 95.390625 C-114.84910567 95.38314397 -117.06540555 95.37745987 -119.28170776 95.37347412 C-125.05205267 95.35836427 -130.82198046 95.3192125 -136.59216309 95.2746582 C-142.50539511 95.23338551 -148.41869601 95.21539546 -154.33203125 95.1953125 C-165.8882315 95.15270089 -177.44401545 95.08247477 -189 95 C-189 83.78 -189 72.56 -189 61 C-181.125 62.4375 -181.125 62.4375 -178.71142578 62.88452148 C-167.53196416 64.88946005 -156.4566301 65.23979524 -145.125 65.25 C-143.95981339 65.25151062 -143.95981339 65.25151062 -142.77108765 65.25305176 C-130.62046187 65.24241239 -118.90132246 64.63767996 -107 62 C-106.28376465 61.8448291 -105.5675293 61.6896582 -104.82958984 61.52978516 C-90.47663125 58.34924475 -77.1444075 53.54517073 -64 47 C-63.31212402 46.65807617 -62.62424805 46.31615234 -61.91552734 45.96386719 C-38.48103049 34.20079561 -18.41904549 18.58802756 0 0 Z " fill="#8DBB7F" transform="translate(509,484)"/>
<path d="M0 0 C10.56 0 21.12 0 32 0 C32 59.07 32 118.14 32 179 C21.44 179 10.88 179 0 179 C0 119.93 0 60.86 0 0 Z " fill="#3B3F43" transform="translate(1007,281)"/>
<path d="M0 0 C10.56 0 21.12 0 32 0 C32 59.07 32 118.14 32 179 C21.44 179 10.88 179 0 179 C0 119.93 0 60.86 0 0 Z " fill="#3B3F43" transform="translate(945,281)"/>
<path d="M0 0 C4.22962091 3.62538935 8.25088499 7.16851257 12.25 11 C29.67022765 27.1801628 49.8564383 38.42821915 71 49 C71 63.85 71 78.7 71 94 C47.57 94 24.14 94 0 94 C0 62.98 0 31.96 0 0 Z " fill="#436A4B" transform="translate(221,486)"/>
<path d="M0 0 C10.89 0 21.78 0 33 0 C33 41.58 33 83.16 33 126 C22.11 126 11.22 126 0 126 C0 84.42 0 42.84 0 0 Z " fill="#3D4145" transform="translate(882,334)"/>
<path d="M0 0 C4.97323349 3.22119527 8.75183135 7.32820834 11 12.875 C11.8635639 20.46632917 11.83517516 27.66844475 7 33.875 C2.55422944 38.58414559 -1.69361175 41.45970486 -8.234375 42.28125 C-15.18872705 42.46669939 -20.50440186 42.3328432 -26.08984375 37.90625 C-30.76637001 32.93325683 -34.27779589 27.06466272 -34.5625 20.125 C-33.90024525 12.01957777 -29.69148619 6.35660492 -24 0.875 C-17.42140529 -4.13726264 -7.156416 -3.71606191 0 0 Z " fill="#90BC82" transform="translate(376,410.125)"/>
<path d="M0 0 C4.51657458 3.31473928 8.50461623 7.81001316 9.8203125 13.3359375 C10.6242214 19.85513621 9.68939433 24.96221274 5.8203125 30.3359375 C1.5712874 34.87695721 -2.68099757 37.82127873 -8.94140625 38.7421875 C-16.78286503 38.9934492 -22.22771077 37.6024032 -28.1796875 32.3359375 C-32.62870133 27.15379046 -34.01635761 21.81310748 -33.65625 15.046875 C-32.69567179 9.58260222 -30.50894739 5.26391895 -26.20703125 1.703125 C-18.20655226 -3.53083321 -8.55214284 -4.88199247 0 0 Z " fill="#3F4246" transform="translate(910.1796875,280.6640625)"/>
<path d="M0 0 C5.42145142 3.90421814 9.30782362 7.86183786 12 14 C12.495 17.96 12.495 17.96 13 22 C-5.81 22 -24.62 22 -44 22 C-42.77098763 13.39691339 -40.05272404 7.05548829 -33.125 1.5625 C-22.86909797 -5.26831777 -10.77358382 -6.8212635 0 0 Z " fill="#F9FAF9" transform="translate(1271,361)"/>
<path d="M0 0 C3.96 0 7.92 0 12 0 C12 11.88 12 23.76 12 36 C-0.21 36 -12.42 36 -25 36 C-25 32.04 -25 28.08 -25 24 C-16.75 24 -8.5 24 0 24 C0 16.08 0 8.16 0 0 Z " fill="#94BC87" transform="translate(407,446)"/>
<path d="M0 0 C3.96 0 7.92 0 12 0 C12 7.92 12 15.84 12 24 C20.25 24 28.5 24 37 24 C37 27.96 37 31.92 37 36 C24.79 36 12.58 36 0 36 C0 24.12 0 12.24 0 0 Z " fill="#95BD88" transform="translate(311,446)"/>
<path d="M0 0 C12.21 0 24.42 0 37 0 C37 11.22 37 22.44 37 34 C33.04 34 29.08 34 25 34 C25 26.41 25 18.82 25 11 C16.75 11 8.5 11 0 11 C0 7.37 0 3.74 0 0 Z " fill="#91B983" transform="translate(382,379)"/>
<path d="M0 0 C11.88 0 23.76 0 36 0 C36 3.63 36 7.26 36 11 C28.08 11 20.16 11 12 11 C12 18.59 12 26.18 12 34 C8.04 34 4.08 34 0 34 C0 22.78 0 11.56 0 0 Z " fill="#91BA83" transform="translate(311,379)"/>
<path d="M0 0 C0.66 0.33 1.32 0.66 2 1 C-8.23 11.23 -18.46 21.46 -29 32 C-29.66 31.67 -30.32 31.34 -31 31 C-21.43356986 20.51308861 -11.81115067 10.23040801 -1 1 C-0.67 0.67 -0.34 0.34 0 0 Z " fill="#EAF4E7" transform="translate(269,388)"/>
<path d="M0 0 C1.09658936 3.28976808 0.79953138 4.71303767 0 8 C-0.66 7.01 -1.32 6.02 -2 5 C-4.31 7.31 -6.62 9.62 -9 12 C-9.66 11.67 -10.32 11.34 -11 11 C-7.37 7.37 -3.74 3.74 0 0 Z " fill="#A6C29E" transform="translate(509,484)"/>
<path d="M0 0 C0.66 0.33 1.32 0.66 2 1 C-1.3 4.3 -4.6 7.6 -8 11 C-8 7.0234755 -6.61988497 5.9109833 -4 3 C-1.75 1.1875 -1.75 1.1875 0 0 Z " fill="#DFDFE1" transform="translate(1240,361)"/>
<path d="M0 0 C0.33 0 0.66 0 1 0 C2.45184478 4.53701494 3.23509196 8.18061476 3 13 C1 12 1 12 0 9 C-0.06740865 7.43881572 -0.08514456 5.8749748 -0.0625 4.3125 C-0.05347656 3.50425781 -0.04445313 2.69601562 -0.03515625 1.86328125 C-0.02355469 1.24839844 -0.01195312 0.63351562 0 0 Z " fill="#B4CFAC" transform="translate(342,426)"/>
<path d="M0 0 C0.33 0.99 0.66 1.98 1 3 C-0.65 4.65 -2.3 6.3 -4 8 C-4.66 7.67 -5.32 7.34 -6 7 C-4.02 4.69 -2.04 2.38 0 0 Z " fill="#A9C7A0" transform="translate(492,439)"/>
</svg>
